<?xml version="1.0" encoding="utf-8" standalone="no"?>
<!DOCTYPE svg PUBLIC "-//W3C//DTD SVG 1.1//EN"
  "http://www.w3.org/Graphics/SVG/1.1/DTD/svg11.dtd">
<svg xmlns:xlink="http://www.w3.org/1999/xlink" width="720pt" height="180pt" viewBox="0 0 720 180" xmlns="http://www.w3.org/2000/svg" version="1.1">
 <metadata>
  <rdf:RDF xmlns:dc="http://purl.org/dc/elements/1.1/" xmlns:cc="http://creativecommons.org/ns#" xmlns:rdf="http://www.w3.org/1999/02/22-rdf-syntax-ns#">
   <cc:Work>
    <dc:type rdf:resource="http://purl.org/dc/dcmitype/StillImage"/>
    <dc:date>2023-03-05T16:27:47.523621</dc:date>
    <dc:format>image/svg+xml</dc:format>
    <dc:creator>
     <cc:Agent>
      <dc:title>Matplotlib v3.7.0, https://matplotlib.org/</dc:title>
     </cc:Agent>
    </dc:creator>
   </cc:Work>
  </rdf:RDF>
 </metadata>
 <defs>
  <style type="text/css">*{stroke-linejoin: round; stroke-linecap: butt}</style>
 </defs>
 <g id="figure_1">
  <g id="patch_1">
   <path d="M 0 180 
L 720 180 
L 720 0 
L 0 0 
z
" style="fill: #ffffff"/>
  </g>
  <g id="axes_1">
   <g id="patch_2">
    <path d="M 90 160.2 
L 648 160.2 
L 648 21.6 
L 90 21.6 
z
" style="fill: #ffffff"/>
   </g>
   <g id="QuadMesh_1">
    <path d="M 90 21.6 
L 117.9 21.6 
L 117.9 49.32 
L 90 49.32 
L 90 21.6 
" clip-path="url(#p42ee1a0e37)" style="fill: #006837; stroke: #ffffff"/>
    <path d="M 117.9 21.6 
L 145.8 21.6 
L 145.8 49.32 
L 117.9 49.32 
L 117.9 21.6 
" clip-path="url(#p42ee1a0e37)" style="fill: #006837; stroke: #ffffff"/>
    <path d="M 145.8 21.6 
L 173.7 21.6 
L 173.7 49.32 
L 145.8 49.32 
L 145.8 21.6 
" clip-path="url(#p42ee1a0e37)" style="fill: #006837; stroke: #ffffff"/>
    <path d="M 173.7 21.6 
L 201.6 21.6 
L 201.6 49.32 
L 173.7 49.32 
L 173.7 21.6 
" clip-path="url(#p42ee1a0e37)" style="fill: #006837; stroke: #ffffff"/>
    <path d="M 201.6 21.6 
L 229.5 21.6 
L 229.5 49.32 
L 201.6 49.32 
L 201.6 21.6 
" clip-path="url(#p42ee1a0e37)" style="fill: #006837; stroke: #ffffff"/>
    <path d="M 229.5 21.6 
L 257.4 21.6 
L 257.4 49.32 
L 229.5 49.32 
L 229.5 21.6 
" clip-path="url(#p42ee1a0e37)" style="fill: #a50026; stroke: #ffffff"/>
    <path d="M 257.4 21.6 
L 285.3 21.6 
L 285.3 49.32 
L 257.4 49.32 
L 257.4 21.6 
" clip-path="url(#p42ee1a0e37)" style="fill: #006837; stroke: #ffffff"/>
    <path d="M 285.3 21.6 
L 313.2 21.6 
L 313.2 49.32 
L 285.3 49.32 
L 285.3 21.6 
" clip-path="url(#p42ee1a0e37)" style="fill: #a50026; stroke: #ffffff"/>
    <path d="M 313.2 21.6 
L 341.1 21.6 
L 341.1 49.32 
L 313.2 49.32 
L 313.2 21.6 
" clip-path="url(#p42ee1a0e37)" style="fill: #a50026; stroke: #ffffff"/>
    <path d="M 341.1 21.6 
L 369 21.6 
L 369 49.32 
L 341.1 49.32 
L 341.1 21.6 
" clip-path="url(#p42ee1a0e37)" style="fill: #006837; stroke: #ffffff"/>
    <path d="M 369 21.6 
L 396.9 21.6 
L 396.9 49.32 
L 369 49.32 
L 369 21.6 
" clip-path="url(#p42ee1a0e37)" style="fill: #006837; stroke: #ffffff"/>
    <path d="M 396.9 21.6 
L 424.8 21.6 
L 424.8 49.32 
L 396.9 49.32 
L 396.9 21.6 
" clip-path="url(#p42ee1a0e37)" style="fill: #006837; stroke: #ffffff"/>
    <path d="M 424.8 21.6 
L 452.7 21.6 
L 452.7 49.32 
L 424.8 49.32 
L 424.8 21.6 
" clip-path="url(#p42ee1a0e37)" style="fill: #006837; stroke: #ffffff"/>
    <path d="M 452.7 21.6 
L 480.6 21.6 
L 480.6 49.32 
L 452.7 49.32 
L 452.7 21.6 
" clip-path="url(#p42ee1a0e37)" style="fill: #a50026; stroke: #ffffff"/>
    <path d="M 480.6 21.6 
L 508.5 21.6 
L 508.5 49.32 
L 480.6 49.32 
L 480.6 21.6 
" clip-path="url(#p42ee1a0e37)" style="fill: #a50026; stroke: #ffffff"/>
    <path d="M 508.5 21.6 
L 536.4 21.6 
L 536.4 49.32 
L 508.5 49.32 
L 508.5 21.6 
" clip-path="url(#p42ee1a0e37)" style="fill: #a50026; stroke: #ffffff"/>
    <path d="M 536.4 21.6 
L 564.3 21.6 
L 564.3 49.32 
L 536.4 49.32 
L 536.4 21.6 
" clip-path="url(#p42ee1a0e37)" style="fill: #a50026; stroke: #ffffff"/>
    <path d="M 564.3 21.6 
L 592.2 21.6 
L 592.2 49.32 
L 564.3 49.32 
L 564.3 21.6 
" clip-path="url(#p42ee1a0e37)" style="fill: #006837; stroke: #ffffff"/>
    <path d="M 592.2 21.6 
L 620.1 21.6 
L 620.1 49.32 
L 592.2 49.32 
L 592.2 21.6 
" clip-path="url(#p42ee1a0e37)" style="fill: #006837; stroke: #ffffff"/>
    <path d="M 620.1 21.6 
L 648 21.6 
L 648 49.32 
L 620.1 49.32 
L 620.1 21.6 
" clip-path="url(#p42ee1a0e37)" style="fill: #a50026; stroke: #ffffff"/>
    <path d="M 90 49.32 
L 117.9 49.32 
L 117.9 77.04 
L 90 77.04 
L 90 49.32 
" clip-path="url(#p42ee1a0e37)" style="fill: #006837; stroke: #ffffff"/>
    <path d="M 117.9 49.32 
L 145.8 49.32 
L 145.8 77.04 
L 117.9 77.04 
L 117.9 49.32 
" clip-path="url(#p42ee1a0e37)" style="fill: #006837; stroke: #ffffff"/>
    <path d="M 145.8 49.32 
L 173.7 49.32 
L 173.7 77.04 
L 145.8 77.04 
L 145.8 49.32 
" clip-path="url(#p42ee1a0e37)" style="fill: #006837; stroke: #ffffff"/>
    <path d="M 173.7 49.32 
L 201.6 49.32 
L 201.6 77.04 
L 173.7 77.04 
L 173.7 49.32 
" clip-path="url(#p42ee1a0e37)" style="fill: #006837; stroke: #ffffff"/>
    <path d="M 201.6 49.32 
L 229.5 49.32 
L 229.5 77.04 
L 201.6 77.04 
L 201.6 49.32 
" clip-path="url(#p42ee1a0e37)" style="fill: #006837; stroke: #ffffff"/>
    <path d="M 229.5 49.32 
L 257.4 49.32 
L 257.4 77.04 
L 229.5 77.04 
L 229.5 49.32 
" clip-path="url(#p42ee1a0e37)" style="fill: #a50026; stroke: #ffffff"/>
    <path d="M 257.4 49.32 
L 285.3 49.32 
L 285.3 77.04 
L 257.4 77.04 
L 257.4 49.32 
" clip-path="url(#p42ee1a0e37)" style="fill: #006837; stroke: #ffffff"/>
    <path d="M 285.3 49.32 
L 313.2 49.32 
L 313.2 77.04 
L 285.3 77.04 
L 285.3 49.32 
" clip-path="url(#p42ee1a0e37)" style="fill: #a50026; stroke: #ffffff"/>
    <path d="M 313.2 49.32 
L 341.1 49.32 
L 341.1 77.04 
L 313.2 77.04 
L 313.2 49.32 
" clip-path="url(#p42ee1a0e37)" style="fill: #006837; stroke: #ffffff"/>
    <path d="M 341.1 49.32 
L 369 49.32 
L 369 77.04 
L 341.1 77.04 
L 341.1 49.32 
" clip-path="url(#p42ee1a0e37)" style="fill: #006837; stroke: #ffffff"/>
    <path d="M 369 49.32 
L 396.9 49.32 
L 396.9 77.04 
L 369 77.04 
L 369 49.32 
" clip-path="url(#p42ee1a0e37)" style="fill: #006837; stroke: #ffffff"/>
    <path d="M 396.9 49.32 
L 424.8 49.32 
L 424.8 77.04 
L 396.9 77.04 
L 396.9 49.32 
" clip-path="url(#p42ee1a0e37)" style="fill: #006837; stroke: #ffffff"/>
    <path d="M 424.8 49.32 
L 452.7 49.32 
L 452.7 77.04 
L 424.8 77.04 
L 424.8 49.32 
" clip-path="url(#p42ee1a0e37)" style="fill: #006837; stroke: #ffffff"/>
    <path d="M 452.7 49.32 
L 480.6 49.32 
L 480.6 77.04 
L 452.7 77.04 
L 452.7 49.32 
" clip-path="url(#p42ee1a0e37)" style="fill: #a50026; stroke: #ffffff"/>
    <path d="M 480.6 49.32 
L 508.5 49.32 
L 508.5 77.04 
L 480.6 77.04 
L 480.6 49.32 
" clip-path="url(#p42ee1a0e37)" style="fill: #a50026; stroke: #ffffff"/>
    <path d="M 508.5 49.32 
L 536.4 49.32 
L 536.4 77.04 
L 508.5 77.04 
L 508.5 49.32 
" clip-path="url(#p42ee1a0e37)" style="fill: #a50026; stroke: #ffffff"/>
    <path d="M 536.4 49.32 
L 564.3 49.32 
L 564.3 77.04 
L 536.4 77.04 
L 536.4 49.32 
" clip-path="url(#p42ee1a0e37)" style="fill: #a50026; stroke: #ffffff"/>
    <path d="M 564.3 49.32 
L 592.2 49.32 
L 592.2 77.04 
L 564.3 77.04 
L 564.3 49.32 
" clip-path="url(#p42ee1a0e37)" style="fill: #006837; stroke: #ffffff"/>
    <path d="M 592.2 49.32 
L 620.1 49.32 
L 620.1 77.04 
L 592.2 77.04 
L 592.2 49.32 
" clip-path="url(#p42ee1a0e37)" style="fill: #006837; stroke: #ffffff"/>
    <path d="M 620.1 49.32 
L 648 49.32 
L 648 77.04 
L 620.1 77.04 
L 620.1 49.32 
" clip-path="url(#p42ee1a0e37)" style="fill: #006837; stroke: #ffffff"/>
    <path d="M 90 77.04 
L 117.9 77.04 
L 117.9 104.76 
L 90 104.76 
L 90 77.04 
" clip-path="url(#p42ee1a0e37)" style="fill: #a50026; stroke: #ffffff"/>
    <path d="M 117.9 77.04 
L 145.8 77.04 
L 145.8 104.76 
L 117.9 104.76 
L 117.9 77.04 
" clip-path="url(#p42ee1a0e37)" style="fill: #006837; stroke: #ffffff"/>
    <path d="M 145.8 77.04 
L 173.7 77.04 
L 173.7 104.76 
L 145.8 104.76 
L 145.8 77.04 
" clip-path="url(#p42ee1a0e37)" style="fill: #a50026; stroke: #ffffff"/>
    <path d="M 173.7 77.04 
L 201.6 77.04 
L 201.6 104.76 
L 173.7 104.76 
L 173.7 77.04 
" clip-path="url(#p42ee1a0e37)" style="fill: #006837; stroke: #ffffff"/>
    <path d="M 201.6 77.04 
L 229.5 77.04 
L 229.5 104.76 
L 201.6 104.76 
L 201.6 77.04 
" clip-path="url(#p42ee1a0e37)" style="fill: #006837; stroke: #ffffff"/>
    <path d="M 229.5 77.04 
L 257.4 77.04 
L 257.4 104.76 
L 229.5 104.76 
L 229.5 77.04 
" clip-path="url(#p42ee1a0e37)" style="fill: #a50026; stroke: #ffffff"/>
    <path d="M 257.4 77.04 
L 285.3 77.04 
L 285.3 104.76 
L 257.4 104.76 
L 257.4 77.04 
" clip-path="url(#p42ee1a0e37)" style="fill: #a50026; stroke: #ffffff"/>
    <path d="M 285.3 77.04 
L 313.2 77.04 
L 313.2 104.76 
L 285.3 104.76 
L 285.3 77.04 
" clip-path="url(#p42ee1a0e37)" style="fill: #a50026; stroke: #ffffff"/>
    <path d="M 313.2 77.04 
L 341.1 77.04 
L 341.1 104.76 
L 313.2 104.76 
L 313.2 77.04 
" clip-path="url(#p42ee1a0e37)" style="fill: #a50026; stroke: #ffffff"/>
    <path d="M 341.1 77.04 
L 369 77.04 
L 369 104.76 
L 341.1 104.76 
L 341.1 77.04 
" clip-path="url(#p42ee1a0e37)" style="fill: #006837; stroke: #ffffff"/>
    <path d="M 369 77.04 
L 396.9 77.04 
L 396.9 104.76 
L 369 104.76 
L 369 77.04 
" clip-path="url(#p42ee1a0e37)" style="fill: #006837; stroke: #ffffff"/>
    <path d="M 396.9 77.04 
L 424.8 77.04 
L 424.8 104.76 
L 396.9 104.76 
L 396.9 77.04 
" clip-path="url(#p42ee1a0e37)" style="fill: #006837; stroke: #ffffff"/>
    <path d="M 424.8 77.04 
L 452.7 77.04 
L 452.7 104.76 
L 424.8 104.76 
L 424.8 77.04 
" clip-path="url(#p42ee1a0e37)" style="fill: #006837; stroke: #ffffff"/>
    <path d="M 452.7 77.04 
L 480.6 77.04 
L 480.6 104.76 
L 452.7 104.76 
L 452.7 77.04 
" clip-path="url(#p42ee1a0e37)" style="fill: #a50026; stroke: #ffffff"/>
    <path d="M 480.6 77.04 
L 508.5 77.04 
L 508.5 104.76 
L 480.6 104.76 
L 480.6 77.04 
" clip-path="url(#p42ee1a0e37)" style="fill: #a50026; stroke: #ffffff"/>
    <path d="M 508.5 77.04 
L 536.4 77.04 
L 536.4 104.76 
L 508.5 104.76 
L 508.5 77.04 
" clip-path="url(#p42ee1a0e37)" style="fill: #a50026; stroke: #ffffff"/>
    <path d="M 536.4 77.04 
L 564.3 77.04 
L 564.3 104.76 
L 536.4 104.76 
L 536.4 77.04 
" clip-path="url(#p42ee1a0e37)" style="fill: #a50026; stroke: #ffffff"/>
    <path d="M 564.3 77.04 
L 592.2 77.04 
L 592.2 104.76 
L 564.3 104.76 
L 564.3 77.04 
" clip-path="url(#p42ee1a0e37)" style="fill: #a50026; stroke: #ffffff"/>
    <path d="M 592.2 77.04 
L 620.1 77.04 
L 620.1 104.76 
L 592.2 104.76 
L 592.2 77.04 
" clip-path="url(#p42ee1a0e37)" style="fill: #a50026; stroke: #ffffff"/>
    <path d="M 620.1 77.04 
L 648 77.04 
L 648 104.76 
L 620.1 104.76 
L 620.1 77.04 
" clip-path="url(#p42ee1a0e37)" style="fill: #a50026; stroke: #ffffff"/>
    <path d="M 90 104.76 
L 117.9 104.76 
L 117.9 132.48 
L 90 132.48 
L 90 104.76 
" clip-path="url(#p42ee1a0e37)" style="fill: #a50026; stroke: #ffffff"/>
    <path d="M 117.9 104.76 
L 145.8 104.76 
L 145.8 132.48 
L 117.9 132.48 
L 117.9 104.76 
" clip-path="url(#p42ee1a0e37)" style="fill: #006837; stroke: #ffffff"/>
    <path d="M 145.8 104.76 
L 173.7 104.76 
L 173.7 132.48 
L 145.8 132.48 
L 145.8 104.76 
" clip-path="url(#p42ee1a0e37)" style="fill: #006837; stroke: #ffffff"/>
    <path d="M 173.7 104.76 
L 201.6 104.76 
L 201.6 132.48 
L 173.7 132.48 
L 173.7 104.76 
" clip-path="url(#p42ee1a0e37)" style="fill: #006837; stroke: #ffffff"/>
    <path d="M 201.6 104.76 
L 229.5 104.76 
L 229.5 132.48 
L 201.6 132.48 
L 201.6 104.76 
" clip-path="url(#p42ee1a0e37)" style="fill: #006837; stroke: #ffffff"/>
    <path d="M 229.5 104.76 
L 257.4 104.76 
L 257.4 132.48 
L 229.5 132.48 
L 229.5 104.76 
" clip-path="url(#p42ee1a0e37)" style="fill: #a50026; stroke: #ffffff"/>
    <path d="M 257.4 104.76 
L 285.3 104.76 
L 285.3 132.48 
L 257.4 132.48 
L 257.4 104.76 
" clip-path="url(#p42ee1a0e37)" style="fill: #006837; stroke: #ffffff"/>
    <path d="M 285.3 104.76 
L 313.2 104.76 
L 313.2 132.48 
L 285.3 132.48 
L 285.3 104.76 
" clip-path="url(#p42ee1a0e37)" style="fill: #a50026; stroke: #ffffff"/>
    <path d="M 313.2 104.76 
L 341.1 104.76 
L 341.1 132.48 
L 313.2 132.48 
L 313.2 104.76 
" clip-path="url(#p42ee1a0e37)" style="fill: #a50026; stroke: #ffffff"/>
    <path d="M 341.1 104.76 
L 369 104.76 
L 369 132.48 
L 341.1 132.48 
L 341.1 104.76 
" clip-path="url(#p42ee1a0e37)" style="fill: #006837; stroke: #ffffff"/>
    <path d="M 369 104.76 
L 396.9 104.76 
L 396.9 132.48 
L 369 132.48 
L 369 104.76 
" clip-path="url(#p42ee1a0e37)" style="fill: #006837; stroke: #ffffff"/>
    <path d="M 396.9 104.76 
L 424.8 104.76 
L 424.8 132.48 
L 396.9 132.48 
L 396.9 104.76 
" clip-path="url(#p42ee1a0e37)" style="fill: #006837; stroke: #ffffff"/>
    <path d="M 424.8 104.76 
L 452.7 104.76 
L 452.7 132.48 
L 424.8 132.48 
L 424.8 104.76 
" clip-path="url(#p42ee1a0e37)" style="fill: #006837; stroke: #ffffff"/>
    <path d="M 452.7 104.76 
L 480.6 104.76 
L 480.6 132.48 
L 452.7 132.48 
L 452.7 104.76 
" clip-path="url(#p42ee1a0e37)" style="fill: #a50026; stroke: #ffffff"/>
    <path d="M 480.6 104.76 
L 508.5 104.76 
L 508.5 132.48 
L 480.6 132.48 
L 480.6 104.76 
" clip-path="url(#p42ee1a0e37)" style="fill: #a50026; stroke: #ffffff"/>
    <path d="M 508.5 104.76 
L 536.4 104.76 
L 536.4 132.48 
L 508.5 132.48 
L 508.5 104.76 
" clip-path="url(#p42ee1a0e37)" style="fill: #a50026; stroke: #ffffff"/>
    <path d="M 536.4 104.76 
L 564.3 104.76 
L 564.3 132.48 
L 536.4 132.48 
L 536.4 104.76 
" clip-path="url(#p42ee1a0e37)" style="fill: #a50026; stroke: #ffffff"/>
    <path d="M 564.3 104.76 
L 592.2 104.76 
L 592.2 132.48 
L 564.3 132.48 
L 564.3 104.76 
" clip-path="url(#p42ee1a0e37)" style="fill: #006837; stroke: #ffffff"/>
    <path d="M 592.2 104.76 
L 620.1 104.76 
L 620.1 132.48 
L 592.2 132.48 
L 592.2 104.76 
" clip-path="url(#p42ee1a0e37)" style="fill: #006837; stroke: #ffffff"/>
    <path d="M 620.1 104.76 
L 648 104.76 
L 648 132.48 
L 620.1 132.48 
L 620.1 104.76 
" clip-path="url(#p42ee1a0e37)" style="fill: #a50026; stroke: #ffffff"/>
    <path d="M 90 132.48 
L 117.9 132.48 
L 117.9 160.2 
L 90 160.2 
L 90 132.48 
" clip-path="url(#p42ee1a0e37)" style="fill: #a50026; stroke: #ffffff"/>
    <path d="M 117.9 132.48 
L 145.8 132.48 
L 145.8 160.2 
L 117.9 160.2 
L 117.9 132.48 
" clip-path="url(#p42ee1a0e37)" style="fill: #006837; stroke: #ffffff"/>
    <path d="M 145.8 132.48 
L 173.7 132.48 
L 173.7 160.2 
L 145.8 160.2 
L 145.8 132.48 
" clip-path="url(#p42ee1a0e37)" style="fill: #a50026; stroke: #ffffff"/>
    <path d="M 173.7 132.48 
L 201.6 132.48 
L 201.6 160.2 
L 173.7 160.2 
L 173.7 132.48 
" clip-path="url(#p42ee1a0e37)" style="fill: #006837; stroke: #ffffff"/>
    <path d="M 201.6 132.48 
L 229.5 132.48 
L 229.5 160.2 
L 201.6 160.2 
L 201.6 132.48 
" clip-path="url(#p42ee1a0e37)" style="fill: #006837; stroke: #ffffff"/>
    <path d="M 229.5 132.48 
L 257.4 132.48 
L 257.4 160.2 
L 229.5 160.2 
L 229.5 132.48 
" clip-path="url(#p42ee1a0e37)" style="fill: #a50026; stroke: #ffffff"/>
    <path d="M 257.4 132.48 
L 285.3 132.48 
L 285.3 160.2 
L 257.4 160.2 
L 257.4 132.48 
" clip-path="url(#p42ee1a0e37)" style="fill: #a50026; stroke: #ffffff"/>
    <path d="M 285.3 132.48 
L 313.2 132.48 
L 313.2 160.2 
L 285.3 160.2 
L 285.3 132.48 
" clip-path="url(#p42ee1a0e37)" style="fill: #a50026; stroke: #ffffff"/>
    <path d="M 313.2 132.48 
L 341.1 132.48 
L 341.1 160.2 
L 313.2 160.2 
L 313.2 132.48 
" clip-path="url(#p42ee1a0e37)" style="fill: #a50026; stroke: #ffffff"/>
    <path d="M 341.1 132.48 
L 369 132.48 
L 369 160.2 
L 341.1 160.2 
L 341.1 132.48 
" clip-path="url(#p42ee1a0e37)" style="fill: #006837; stroke: #ffffff"/>
    <path d="M 369 132.48 
L 396.9 132.48 
L 396.9 160.2 
L 369 160.2 
L 369 132.48 
" clip-path="url(#p42ee1a0e37)" style="fill: #006837; stroke: #ffffff"/>
    <path d="M 396.9 132.48 
L 424.8 132.48 
L 424.8 160.2 
L 396.9 160.2 
L 396.9 132.48 
" clip-path="url(#p42ee1a0e37)" style="fill: #006837; stroke: #ffffff"/>
    <path d="M 424.8 132.48 
L 452.7 132.48 
L 452.7 160.2 
L 424.8 160.2 
L 424.8 132.48 
" clip-path="url(#p42ee1a0e37)" style="fill: #006837; stroke: #ffffff"/>
    <path d="M 452.7 132.48 
L 480.6 132.48 
L 480.6 160.2 
L 452.7 160.2 
L 452.7 132.48 
" clip-path="url(#p42ee1a0e37)" style="fill: #a50026; stroke: #ffffff"/>
    <path d="M 480.6 132.48 
L 508.5 132.48 
L 508.5 160.2 
L 480.6 160.2 
L 480.6 132.48 
" clip-path="url(#p42ee1a0e37)" style="fill: #a50026; stroke: #ffffff"/>
    <path d="M 508.5 132.48 
L 536.4 132.48 
L 536.4 160.2 
L 508.5 160.2 
L 508.5 132.48 
" clip-path="url(#p42ee1a0e37)" style="fill: #a50026; stroke: #ffffff"/>
    <path d="M 536.4 132.48 
L 564.3 132.48 
L 564.3 160.2 
L 536.4 160.2 
L 536.4 132.48 
" clip-path="url(#p42ee1a0e37)" style="fill: #a50026; stroke: #ffffff"/>
    <path d="M 564.3 132.48 
L 592.2 132.48 
L 592.2 160.2 
L 564.3 160.2 
L 564.3 132.48 
" clip-path="url(#p42ee1a0e37)" style="fill: #006837; stroke: #ffffff"/>
    <path d="M 592.2 132.48 
L 620.1 132.48 
L 620.1 160.2 
L 592.2 160.2 
L 592.2 132.48 
" clip-path="url(#p42ee1a0e37)" style="fill: #006837; stroke: #ffffff"/>
    <path d="M 620.1 132.48 
L 648 132.48 
L 648 160.2 
L 620.1 160.2 
L 620.1 132.48 
" clip-path="url(#p42ee1a0e37)" style="fill: #a50026; stroke: #ffffff"/>
   </g>
   <g id="matplotlib.axis_1">
    <g id="xtick_1"/>
    <g id="xtick_2"/>
    <g id="xtick_3"/>
    <g id="xtick_4"/>
    <g id="xtick_5"/>
    <g id="xtick_6"/>
    <g id="xtick_7"/>
    <g id="xtick_8"/>
    <g id="xtick_9"/>
    <g id="xtick_10"/>
    <g id="xtick_11"/>
    <g id="xtick_12"/>
    <g id="xtick_13"/>
    <g id="xtick_14"/>
    <g id="xtick_15"/>
    <g id="xtick_16"/>
    <g id="xtick_17"/>
    <g id="xtick_18"/>
    <g id="xtick_19"/>
    <g id="xtick_20"/>
    <g id="text_1">
     <!-- Questions -->
     <g transform="translate(319.064062 179.396875) scale(0.2 -0.2)">
      <defs>
       <path id="DejaVuSans-51" d="M 2522 4238 
Q 1834 4238 1429 3725 
Q 1025 3213 1025 2328 
Q 1025 1447 1429 934 
Q 1834 422 2522 422 
Q 3209 422 3611 934 
Q 4013 1447 4013 2328 
Q 4013 3213 3611 3725 
Q 3209 4238 2522 4238 
z
M 3406 84 
L 4238 -825 
L 3475 -825 
L 2784 -78 
Q 2681 -84 2626 -87 
Q 2572 -91 2522 -91 
Q 1538 -91 948 567 
Q 359 1225 359 2328 
Q 359 3434 948 4092 
Q 1538 4750 2522 4750 
Q 3503 4750 4090 4092 
Q 4678 3434 4678 2328 
Q 4678 1516 4351 937 
Q 4025 359 3406 84 
z
" transform="scale(0.015625)"/>
       <path id="DejaVuSans-75" d="M 544 1381 
L 544 3500 
L 1119 3500 
L 1119 1403 
Q 1119 906 1312 657 
Q 1506 409 1894 409 
Q 2359 409 2629 706 
Q 2900 1003 2900 1516 
L 2900 3500 
L 3475 3500 
L 3475 0 
L 2900 0 
L 2900 538 
Q 2691 219 2414 64 
Q 2138 -91 1772 -91 
Q 1169 -91 856 284 
Q 544 659 544 1381 
z
M 1991 3584 
L 1991 3584 
z
" transform="scale(0.015625)"/>
       <path id="DejaVuSans-65" d="M 3597 1894 
L 3597 1613 
L 953 1613 
Q 991 1019 1311 708 
Q 1631 397 2203 397 
Q 2534 397 2845 478 
Q 3156 559 3463 722 
L 3463 178 
Q 3153 47 2828 -22 
Q 2503 -91 2169 -91 
Q 1331 -91 842 396 
Q 353 884 353 1716 
Q 353 2575 817 3079 
Q 1281 3584 2069 3584 
Q 2775 3584 3186 3129 
Q 3597 2675 3597 1894 
z
M 3022 2063 
Q 3016 2534 2758 2815 
Q 2500 3097 2075 3097 
Q 1594 3097 1305 2825 
Q 1016 2553 972 2059 
L 3022 2063 
z
" transform="scale(0.015625)"/>
       <path id="DejaVuSans-73" d="M 2834 3397 
L 2834 2853 
Q 2591 2978 2328 3040 
Q 2066 3103 1784 3103 
Q 1356 3103 1142 2972 
Q 928 2841 928 2578 
Q 928 2378 1081 2264 
Q 1234 2150 1697 2047 
L 1894 2003 
Q 2506 1872 2764 1633 
Q 3022 1394 3022 966 
Q 3022 478 2636 193 
Q 2250 -91 1575 -91 
Q 1294 -91 989 -36 
Q 684 19 347 128 
L 347 722 
Q 666 556 975 473 
Q 1284 391 1588 391 
Q 1994 391 2212 530 
Q 2431 669 2431 922 
Q 2431 1156 2273 1281 
Q 2116 1406 1581 1522 
L 1381 1569 
Q 847 1681 609 1914 
Q 372 2147 372 2553 
Q 372 3047 722 3315 
Q 1072 3584 1716 3584 
Q 2034 3584 2315 3537 
Q 2597 3491 2834 3397 
z
" transform="scale(0.015625)"/>
       <path id="DejaVuSans-74" d="M 1172 4494 
L 1172 3500 
L 2356 3500 
L 2356 3053 
L 1172 3053 
L 1172 1153 
Q 1172 725 1289 603 
Q 1406 481 1766 481 
L 2356 481 
L 2356 0 
L 1766 0 
Q 1100 0 847 248 
Q 594 497 594 1153 
L 594 3053 
L 172 3053 
L 172 3500 
L 594 3500 
L 594 4494 
L 1172 4494 
z
" transform="scale(0.015625)"/>
       <path id="DejaVuSans-69" d="M 603 3500 
L 1178 3500 
L 1178 0 
L 603 0 
L 603 3500 
z
M 603 4863 
L 1178 4863 
L 1178 4134 
L 603 4134 
L 603 4863 
z
" transform="scale(0.015625)"/>
       <path id="DejaVuSans-6f" d="M 1959 3097 
Q 1497 3097 1228 2736 
Q 959 2375 959 1747 
Q 959 1119 1226 758 
Q 1494 397 1959 397 
Q 2419 397 2687 759 
Q 2956 1122 2956 1747 
Q 2956 2369 2687 2733 
Q 2419 3097 1959 3097 
z
M 1959 3584 
Q 2709 3584 3137 3096 
Q 3566 2609 3566 1747 
Q 3566 888 3137 398 
Q 2709 -91 1959 -91 
Q 1206 -91 779 398 
Q 353 888 353 1747 
Q 353 2609 779 3096 
Q 1206 3584 1959 3584 
z
" transform="scale(0.015625)"/>
       <path id="DejaVuSans-6e" d="M 3513 2113 
L 3513 0 
L 2938 0 
L 2938 2094 
Q 2938 2591 2744 2837 
Q 2550 3084 2163 3084 
Q 1697 3084 1428 2787 
Q 1159 2491 1159 1978 
L 1159 0 
L 581 0 
L 581 3500 
L 1159 3500 
L 1159 2956 
Q 1366 3272 1645 3428 
Q 1925 3584 2291 3584 
Q 2894 3584 3203 3211 
Q 3513 2838 3513 2113 
z
" transform="scale(0.015625)"/>
      </defs>
      <use xlink:href="#DejaVuSans-51"/>
      <use xlink:href="#DejaVuSans-75" x="78.710938"/>
      <use xlink:href="#DejaVuSans-65" x="142.089844"/>
      <use xlink:href="#DejaVuSans-73" x="203.613281"/>
      <use xlink:href="#DejaVuSans-74" x="255.712891"/>
      <use xlink:href="#DejaVuSans-69" x="294.921875"/>
      <use xlink:href="#DejaVuSans-6f" x="322.705078"/>
      <use xlink:href="#DejaVuSans-6e" x="383.886719"/>
      <use xlink:href="#DejaVuSans-73" x="447.265625"/>
     </g>
    </g>
   </g>
   <g id="matplotlib.axis_2">
    <g id="ytick_1"/>
    <g id="ytick_2"/>
    <g id="ytick_3"/>
    <g id="ytick_4"/>
    <g id="ytick_5"/>
    <g id="text_2">
     <!-- Religions -->
     <g transform="translate(81.840625 135.9) rotate(-90) scale(0.2 -0.2)">
      <defs>
       <path id="DejaVuSans-52" d="M 2841 2188 
Q 3044 2119 3236 1894 
Q 3428 1669 3622 1275 
L 4263 0 
L 3584 0 
L 2988 1197 
Q 2756 1666 2539 1819 
Q 2322 1972 1947 1972 
L 1259 1972 
L 1259 0 
L 628 0 
L 628 4666 
L 2053 4666 
Q 2853 4666 3247 4331 
Q 3641 3997 3641 3322 
Q 3641 2881 3436 2590 
Q 3231 2300 2841 2188 
z
M 1259 4147 
L 1259 2491 
L 2053 2491 
Q 2509 2491 2742 2702 
Q 2975 2913 2975 3322 
Q 2975 3731 2742 3939 
Q 2509 4147 2053 4147 
L 1259 4147 
z
" transform="scale(0.015625)"/>
       <path id="DejaVuSans-6c" d="M 603 4863 
L 1178 4863 
L 1178 0 
L 603 0 
L 603 4863 
z
" transform="scale(0.015625)"/>
       <path id="DejaVuSans-67" d="M 2906 1791 
Q 2906 2416 2648 2759 
Q 2391 3103 1925 3103 
Q 1463 3103 1205 2759 
Q 947 2416 947 1791 
Q 947 1169 1205 825 
Q 1463 481 1925 481 
Q 2391 481 2648 825 
Q 2906 1169 2906 1791 
z
M 3481 434 
Q 3481 -459 3084 -895 
Q 2688 -1331 1869 -1331 
Q 1566 -1331 1297 -1286 
Q 1028 -1241 775 -1147 
L 775 -588 
Q 1028 -725 1275 -790 
Q 1522 -856 1778 -856 
Q 2344 -856 2625 -561 
Q 2906 -266 2906 331 
L 2906 616 
Q 2728 306 2450 153 
Q 2172 0 1784 0 
Q 1141 0 747 490 
Q 353 981 353 1791 
Q 353 2603 747 3093 
Q 1141 3584 1784 3584 
Q 2172 3584 2450 3431 
Q 2728 3278 2906 2969 
L 2906 3500 
L 3481 3500 
L 3481 434 
z
" transform="scale(0.015625)"/>
      </defs>
      <use xlink:href="#DejaVuSans-52"/>
      <use xlink:href="#DejaVuSans-65" x="64.982422"/>
      <use xlink:href="#DejaVuSans-6c" x="126.505859"/>
      <use xlink:href="#DejaVuSans-69" x="154.289062"/>
      <use xlink:href="#DejaVuSans-67" x="182.072266"/>
      <use xlink:href="#DejaVuSans-69" x="245.548828"/>
      <use xlink:href="#DejaVuSans-6f" x="273.332031"/>
      <use xlink:href="#DejaVuSans-6e" x="334.513672"/>
      <use xlink:href="#DejaVuSans-73" x="397.892578"/>
     </g>
    </g>
   </g>
  </g>
 </g>
 <defs>
  <clipPath id="p42ee1a0e37">
   <rect x="90" y="21.6" width="558" height="138.6"/>
  </clipPath>
 </defs>
</svg>
